<svg width="414" height="138" viewBox="0 0 414 138" fill="none" xmlns="http://www.w3.org/2000/svg">
<g filter="url(#filter0_d_410_48368)">
<rect x="42" y="38" width="330" height="54" rx="10" fill="#C3D4FE" shape-rendering="crispEdges"/>
<path d="M70.75 65C70.75 60.9959 73.9959 57.75 78 57.75C82.0041 57.75 85.25 60.9959 85.25 65C85.25 69.0041 82.0041 72.25 78 72.25C73.9959 72.25 70.75 69.0041 70.75 65Z" stroke="#243F80" stroke-width="1.5" stroke-linecap="round" stroke-linejoin="round"/>
<path d="M75.75 65.75L76.1837 66.6744C76.5275 67.407 77.5536 67.4492 77.9564 66.7473L80.25 62.75" stroke="#243F80" stroke-width="1.5" stroke-linecap="round" stroke-linejoin="round"/>
<path d="M103.488 69.626C102.517 69.626 101.687 69.4207 100.996 69.01C100.305 68.5993 99.7733 68.016 99.4 67.26C99.036 66.504 98.854 65.6033 98.854 64.558C98.854 63.774 98.9567 63.074 99.162 62.458C99.3767 61.8327 99.68 61.3053 100.072 60.876C100.473 60.4373 100.963 60.1013 101.542 59.868C102.121 59.6253 102.769 59.504 103.488 59.504C104.067 59.504 104.617 59.588 105.14 59.756C105.663 59.9147 106.115 60.1527 106.498 60.47C106.619 60.5633 106.699 60.6707 106.736 60.792C106.783 60.904 106.787 61.016 106.75 61.128C106.722 61.2307 106.666 61.3193 106.582 61.394C106.507 61.4593 106.414 61.492 106.302 61.492C106.19 61.492 106.064 61.4453 105.924 61.352C105.588 61.0813 105.219 60.8807 104.818 60.75C104.417 60.6193 103.983 60.554 103.516 60.554C102.779 60.554 102.153 60.7127 101.64 61.03C101.127 61.338 100.739 61.7907 100.478 62.388C100.217 62.9853 100.086 63.7087 100.086 64.558C100.086 65.4073 100.217 66.1353 100.478 66.742C100.739 67.3393 101.127 67.7967 101.64 68.114C102.153 68.422 102.779 68.576 103.516 68.576C103.973 68.576 104.407 68.5107 104.818 68.38C105.229 68.24 105.607 68.0347 105.952 67.764C106.092 67.6707 106.218 67.6287 106.33 67.638C106.442 67.638 106.535 67.6707 106.61 67.736C106.685 67.8013 106.736 67.8853 106.764 67.988C106.801 68.0907 106.801 68.198 106.764 68.31C106.736 68.422 106.666 68.52 106.554 68.604C106.162 68.94 105.7 69.1967 105.168 69.374C104.645 69.542 104.085 69.626 103.488 69.626ZM110.407 69.626C109.941 69.626 109.521 69.5373 109.147 69.36C108.783 69.1733 108.494 68.9213 108.279 68.604C108.065 68.2867 107.957 67.932 107.957 67.54C107.957 67.036 108.083 66.6393 108.335 66.35C108.597 66.0607 109.021 65.8553 109.609 65.734C110.207 65.6127 111.019 65.552 112.045 65.552H112.675V66.294H112.059C111.303 66.294 110.706 66.3313 110.267 66.406C109.838 66.4713 109.535 66.588 109.357 66.756C109.189 66.924 109.105 67.162 109.105 67.47C109.105 67.8527 109.236 68.1653 109.497 68.408C109.768 68.6507 110.132 68.772 110.589 68.772C110.963 68.772 111.289 68.6833 111.569 68.506C111.859 68.3287 112.083 68.086 112.241 67.778C112.409 67.47 112.493 67.1153 112.493 66.714V65.118C112.493 64.5393 112.377 64.124 112.143 63.872C111.91 63.6107 111.527 63.48 110.995 63.48C110.669 63.48 110.342 63.522 110.015 63.606C109.689 63.69 109.343 63.8253 108.979 64.012C108.849 64.0773 108.737 64.1007 108.643 64.082C108.55 64.054 108.475 64.0027 108.419 63.928C108.363 63.8533 108.331 63.7693 108.321 63.676C108.312 63.5733 108.331 63.4753 108.377 63.382C108.433 63.2887 108.517 63.214 108.629 63.158C109.04 62.9527 109.446 62.8033 109.847 62.71C110.249 62.6167 110.631 62.57 110.995 62.57C111.583 62.57 112.069 62.668 112.451 62.864C112.834 63.0507 113.119 63.34 113.305 63.732C113.492 64.1147 113.585 64.6093 113.585 65.216V69.01C113.585 69.1967 113.539 69.3413 113.445 69.444C113.361 69.5467 113.235 69.598 113.067 69.598C112.89 69.598 112.755 69.5467 112.661 69.444C112.568 69.3413 112.521 69.1967 112.521 69.01V67.918H112.647C112.573 68.2727 112.428 68.576 112.213 68.828C112.008 69.08 111.751 69.276 111.443 69.416C111.135 69.556 110.79 69.626 110.407 69.626ZM118.279 69.626C117.672 69.626 117.14 69.4813 116.683 69.192C116.235 68.9027 115.885 68.4967 115.633 67.974C115.39 67.442 115.269 66.8167 115.269 66.098C115.269 65.37 115.39 64.7447 115.633 64.222C115.885 63.69 116.235 63.284 116.683 63.004C117.14 62.7147 117.672 62.57 118.279 62.57C118.895 62.57 119.422 62.724 119.861 63.032C120.3 63.34 120.594 63.7553 120.743 64.278H120.589V60.106C120.589 59.9193 120.636 59.7793 120.729 59.686C120.832 59.5833 120.976 59.532 121.163 59.532C121.34 59.532 121.476 59.5833 121.569 59.686C121.672 59.7793 121.723 59.9193 121.723 60.106V69.01C121.723 69.1967 121.676 69.3413 121.583 69.444C121.49 69.5467 121.35 69.598 121.163 69.598C120.986 69.598 120.846 69.5467 120.743 69.444C120.65 69.3413 120.603 69.1967 120.603 69.01V67.68L120.757 67.876C120.608 68.408 120.309 68.8327 119.861 69.15C119.422 69.4673 118.895 69.626 118.279 69.626ZM118.517 68.716C118.937 68.716 119.306 68.6133 119.623 68.408C119.94 68.2027 120.183 67.904 120.351 67.512C120.528 67.12 120.617 66.6487 120.617 66.098C120.617 65.2487 120.426 64.6 120.043 64.152C119.67 63.704 119.161 63.48 118.517 63.48C118.088 63.48 117.714 63.5827 117.397 63.788C117.089 63.984 116.846 64.278 116.669 64.67C116.501 65.0527 116.417 65.5287 116.417 66.098C116.417 66.938 116.608 67.5867 116.991 68.044C117.374 68.492 117.882 68.716 118.517 68.716ZM125.993 69.626C125.526 69.626 125.106 69.5373 124.733 69.36C124.369 69.1733 124.08 68.9213 123.865 68.604C123.65 68.2867 123.543 67.932 123.543 67.54C123.543 67.036 123.669 66.6393 123.921 66.35C124.182 66.0607 124.607 65.8553 125.195 65.734C125.792 65.6127 126.604 65.552 127.631 65.552H128.261V66.294H127.645C126.889 66.294 126.292 66.3313 125.853 66.406C125.424 66.4713 125.12 66.588 124.943 66.756C124.775 66.924 124.691 67.162 124.691 67.47C124.691 67.8527 124.822 68.1653 125.083 68.408C125.354 68.6507 125.718 68.772 126.175 68.772C126.548 68.772 126.875 68.6833 127.155 68.506C127.444 68.3287 127.668 68.086 127.827 67.778C127.995 67.47 128.079 67.1153 128.079 66.714V65.118C128.079 64.5393 127.962 64.124 127.729 63.872C127.496 63.6107 127.113 63.48 126.581 63.48C126.254 63.48 125.928 63.522 125.601 63.606C125.274 63.69 124.929 63.8253 124.565 64.012C124.434 64.0773 124.322 64.1007 124.229 64.082C124.136 64.054 124.061 64.0027 124.005 63.928C123.949 63.8533 123.916 63.7693 123.907 63.676C123.898 63.5733 123.916 63.4753 123.963 63.382C124.019 63.2887 124.103 63.214 124.215 63.158C124.626 62.9527 125.032 62.8033 125.433 62.71C125.834 62.6167 126.217 62.57 126.581 62.57C127.169 62.57 127.654 62.668 128.037 62.864C128.42 63.0507 128.704 63.34 128.891 63.732C129.078 64.1147 129.171 64.6093 129.171 65.216V69.01C129.171 69.1967 129.124 69.3413 129.031 69.444C128.947 69.5467 128.821 69.598 128.653 69.598C128.476 69.598 128.34 69.5467 128.247 69.444C128.154 69.3413 128.107 69.1967 128.107 69.01V67.918H128.233C128.158 68.2727 128.014 68.576 127.799 68.828C127.594 69.08 127.337 69.276 127.029 69.416C126.721 69.556 126.376 69.626 125.993 69.626ZM133.571 69.626C133.151 69.626 132.726 69.5747 132.297 69.472C131.877 69.3693 131.485 69.192 131.121 68.94C131.028 68.8747 130.962 68.8 130.925 68.716C130.888 68.6227 130.874 68.534 130.883 68.45C130.902 68.3567 130.939 68.2773 130.995 68.212C131.06 68.1467 131.135 68.1093 131.219 68.1C131.312 68.0813 131.415 68.1 131.527 68.156C131.891 68.38 132.241 68.5387 132.577 68.632C132.922 68.716 133.263 68.758 133.599 68.758C134.131 68.758 134.532 68.66 134.803 68.464C135.074 68.268 135.209 68.002 135.209 67.666C135.209 67.4047 135.12 67.1993 134.943 67.05C134.766 66.8913 134.486 66.77 134.103 66.686L132.829 66.406C132.241 66.2847 131.802 66.0747 131.513 65.776C131.233 65.4773 131.093 65.09 131.093 64.614C131.093 64.194 131.2 63.8347 131.415 63.536C131.639 63.228 131.952 62.99 132.353 62.822C132.754 62.654 133.221 62.57 133.753 62.57C134.164 62.57 134.551 62.626 134.915 62.738C135.288 62.8407 135.624 63.0087 135.923 63.242C136.016 63.3073 136.077 63.3867 136.105 63.48C136.142 63.564 136.147 63.6527 136.119 63.746C136.1 63.83 136.058 63.9047 135.993 63.97C135.928 64.026 135.848 64.0587 135.755 64.068C135.662 64.0773 135.564 64.0493 135.461 63.984C135.181 63.7973 134.896 63.662 134.607 63.578C134.318 63.4847 134.033 63.438 133.753 63.438C133.23 63.438 132.834 63.5407 132.563 63.746C132.292 63.9513 132.157 64.222 132.157 64.558C132.157 64.8193 132.241 65.034 132.409 65.202C132.577 65.37 132.838 65.4913 133.193 65.566L134.467 65.832C135.074 65.9627 135.526 66.1727 135.825 66.462C136.133 66.742 136.287 67.1247 136.287 67.61C136.287 68.226 136.04 68.716 135.545 69.08C135.05 69.444 134.392 69.626 133.571 69.626ZM140.677 69.626C140.145 69.626 139.697 69.5327 139.333 69.346C138.978 69.15 138.712 68.87 138.535 68.506C138.357 68.1327 138.269 67.68 138.269 67.148V63.578H137.331C137.172 63.578 137.051 63.5407 136.967 63.466C136.883 63.382 136.841 63.27 136.841 63.13C136.841 62.99 136.883 62.8827 136.967 62.808C137.051 62.7333 137.172 62.696 137.331 62.696H138.269V61.086C138.269 60.8993 138.32 60.7593 138.423 60.666C138.525 60.5633 138.665 60.512 138.843 60.512C139.02 60.512 139.155 60.5633 139.249 60.666C139.351 60.7593 139.403 60.8993 139.403 61.086V62.696H141.167C141.325 62.696 141.447 62.7333 141.531 62.808C141.615 62.8827 141.657 62.99 141.657 63.13C141.657 63.27 141.615 63.382 141.531 63.466C141.447 63.5407 141.325 63.578 141.167 63.578H139.403V67.036C139.403 67.568 139.515 67.974 139.739 68.254C139.963 68.5247 140.327 68.66 140.831 68.66C141.008 68.66 141.157 68.6413 141.279 68.604C141.409 68.5667 141.517 68.548 141.601 68.548C141.685 68.5387 141.755 68.5667 141.811 68.632C141.867 68.6973 141.895 68.8093 141.895 68.968C141.895 69.08 141.871 69.1827 141.825 69.276C141.787 69.3693 141.717 69.4347 141.615 69.472C141.503 69.5093 141.353 69.542 141.167 69.57C140.989 69.6073 140.826 69.626 140.677 69.626ZM143.415 69.598C143.229 69.598 143.084 69.5467 142.981 69.444C142.888 69.3413 142.841 69.1967 142.841 69.01V63.172C142.841 62.9853 142.888 62.8453 142.981 62.752C143.075 62.6493 143.21 62.598 143.387 62.598C143.565 62.598 143.7 62.6493 143.793 62.752C143.896 62.8453 143.947 62.9853 143.947 63.172V64.306H143.807C143.957 63.7553 144.241 63.3307 144.661 63.032C145.081 62.7333 145.599 62.5747 146.215 62.556C146.355 62.5467 146.467 62.5793 146.551 62.654C146.635 62.7193 146.682 62.836 146.691 63.004C146.701 63.1627 146.663 63.2887 146.579 63.382C146.495 63.4753 146.365 63.5313 146.187 63.55L145.963 63.578C145.329 63.634 144.839 63.8393 144.493 64.194C144.157 64.5393 143.989 65.0153 143.989 65.622V69.01C143.989 69.1967 143.938 69.3413 143.835 69.444C143.742 69.5467 143.602 69.598 143.415 69.598ZM150.605 69.626C149.942 69.626 149.368 69.4813 148.883 69.192C148.398 68.9027 148.02 68.4967 147.749 67.974C147.488 67.442 147.357 66.8167 147.357 66.098C147.357 65.5567 147.432 65.0713 147.581 64.642C147.73 64.2033 147.95 63.83 148.239 63.522C148.528 63.214 148.869 62.9807 149.261 62.822C149.662 62.654 150.11 62.57 150.605 62.57C151.268 62.57 151.842 62.7147 152.327 63.004C152.812 63.2933 153.186 63.704 153.447 64.236C153.718 64.7587 153.853 65.3793 153.853 66.098C153.853 66.6393 153.778 67.1247 153.629 67.554C153.48 67.9833 153.26 68.3567 152.971 68.674C152.682 68.982 152.336 69.22 151.935 69.388C151.543 69.5467 151.1 69.626 150.605 69.626ZM150.605 68.716C151.025 68.716 151.394 68.6133 151.711 68.408C152.028 68.2027 152.271 67.904 152.439 67.512C152.616 67.12 152.705 66.6487 152.705 66.098C152.705 65.2487 152.514 64.6 152.131 64.152C151.758 63.704 151.249 63.48 150.605 63.48C150.176 63.48 149.802 63.5827 149.485 63.788C149.177 63.984 148.934 64.278 148.757 64.67C148.589 65.0527 148.505 65.5287 148.505 66.098C148.505 66.938 148.696 67.5867 149.079 68.044C149.462 68.492 149.97 68.716 150.605 68.716ZM162.05 69.626C161.368 69.626 160.78 69.4767 160.286 69.178C159.791 68.8793 159.408 68.464 159.138 67.932C158.876 67.3907 158.746 66.7653 158.746 66.056C158.746 65.5147 158.82 65.0293 158.97 64.6C159.119 64.1707 159.338 63.8067 159.628 63.508C159.917 63.2 160.262 62.9667 160.664 62.808C161.074 62.6493 161.536 62.57 162.05 62.57C162.386 62.57 162.736 62.6213 163.1 62.724C163.464 62.8267 163.795 63.004 164.094 63.256C164.187 63.3213 164.248 63.4007 164.276 63.494C164.304 63.5873 164.304 63.6807 164.276 63.774C164.248 63.858 164.201 63.9327 164.136 63.998C164.07 64.054 163.986 64.0867 163.884 64.096C163.79 64.1053 163.692 64.0727 163.59 63.998C163.347 63.8113 163.1 63.6807 162.848 63.606C162.596 63.5313 162.353 63.494 162.12 63.494C161.756 63.494 161.438 63.5547 161.168 63.676C160.897 63.788 160.668 63.9513 160.482 64.166C160.295 64.3807 160.15 64.6467 160.048 64.964C159.954 65.2813 159.908 65.65 159.908 66.07C159.908 66.882 160.099 67.526 160.482 68.002C160.864 68.4687 161.41 68.702 162.12 68.702C162.353 68.702 162.591 68.6647 162.834 68.59C163.086 68.5153 163.338 68.3847 163.59 68.198C163.692 68.1233 163.79 68.0907 163.884 68.1C163.977 68.1093 164.056 68.1467 164.122 68.212C164.187 68.268 164.229 68.3427 164.248 68.436C164.276 68.5293 164.276 68.6227 164.248 68.716C164.22 68.8 164.159 68.8747 164.066 68.94C163.767 69.1827 163.44 69.36 163.086 69.472C162.731 69.5747 162.386 69.626 162.05 69.626ZM168.337 69.626C167.675 69.626 167.101 69.4813 166.615 69.192C166.13 68.9027 165.752 68.4967 165.481 67.974C165.22 67.442 165.089 66.8167 165.089 66.098C165.089 65.5567 165.164 65.0713 165.313 64.642C165.463 64.2033 165.682 63.83 165.971 63.522C166.261 63.214 166.601 62.9807 166.993 62.822C167.395 62.654 167.843 62.57 168.337 62.57C169 62.57 169.574 62.7147 170.059 63.004C170.545 63.2933 170.918 63.704 171.179 64.236C171.45 64.7587 171.585 65.3793 171.585 66.098C171.585 66.6393 171.511 67.1247 171.361 67.554C171.212 67.9833 170.993 68.3567 170.703 68.674C170.414 68.982 170.069 69.22 169.667 69.388C169.275 69.5467 168.832 69.626 168.337 69.626ZM168.337 68.716C168.757 68.716 169.126 68.6133 169.443 68.408C169.761 68.2027 170.003 67.904 170.171 67.512C170.349 67.12 170.437 66.6487 170.437 66.098C170.437 65.2487 170.246 64.6 169.863 64.152C169.49 63.704 168.981 63.48 168.337 63.48C167.908 63.48 167.535 63.5827 167.217 63.788C166.909 63.984 166.667 64.278 166.489 64.67C166.321 65.0527 166.237 65.5287 166.237 66.098C166.237 66.938 166.429 67.5867 166.811 68.044C167.194 68.492 167.703 68.716 168.337 68.716ZM173.849 69.598C173.662 69.598 173.522 69.5467 173.429 69.444C173.335 69.3413 173.289 69.1967 173.289 69.01V63.172C173.289 62.9853 173.335 62.8453 173.429 62.752C173.522 62.6493 173.657 62.598 173.835 62.598C174.012 62.598 174.147 62.6493 174.241 62.752C174.343 62.8453 174.395 62.9853 174.395 63.172V64.376L174.241 64.208C174.437 63.6667 174.754 63.2607 175.193 62.99C175.641 62.71 176.154 62.57 176.733 62.57C177.274 62.57 177.722 62.668 178.077 62.864C178.441 63.06 178.711 63.3587 178.889 63.76C179.066 64.152 179.155 64.6513 179.155 65.258V69.01C179.155 69.1967 179.103 69.3413 179.001 69.444C178.907 69.5467 178.772 69.598 178.595 69.598C178.408 69.598 178.263 69.5467 178.161 69.444C178.067 69.3413 178.021 69.1967 178.021 69.01V65.328C178.021 64.6933 177.895 64.2313 177.643 63.942C177.4 63.6433 177.008 63.494 176.467 63.494C175.841 63.494 175.342 63.69 174.969 64.082C174.605 64.4647 174.423 64.978 174.423 65.622V69.01C174.423 69.402 174.231 69.598 173.849 69.598ZM184.13 69.626C183.448 69.626 182.86 69.4767 182.366 69.178C181.871 68.8793 181.488 68.464 181.218 67.932C180.956 67.3907 180.826 66.7653 180.826 66.056C180.826 65.5147 180.9 65.0293 181.05 64.6C181.199 64.1707 181.418 63.8067 181.708 63.508C181.997 63.2 182.342 62.9667 182.744 62.808C183.154 62.6493 183.616 62.57 184.13 62.57C184.466 62.57 184.816 62.6213 185.18 62.724C185.544 62.8267 185.875 63.004 186.174 63.256C186.267 63.3213 186.328 63.4007 186.356 63.494C186.384 63.5873 186.384 63.6807 186.356 63.774C186.328 63.858 186.281 63.9327 186.216 63.998C186.15 64.054 186.066 64.0867 185.964 64.096C185.87 64.1053 185.772 64.0727 185.67 63.998C185.427 63.8113 185.18 63.6807 184.928 63.606C184.676 63.5313 184.433 63.494 184.2 63.494C183.836 63.494 183.518 63.5547 183.248 63.676C182.977 63.788 182.748 63.9513 182.562 64.166C182.375 64.3807 182.23 64.6467 182.128 64.964C182.034 65.2813 181.988 65.65 181.988 66.07C181.988 66.882 182.179 67.526 182.562 68.002C182.944 68.4687 183.49 68.702 184.2 68.702C184.433 68.702 184.671 68.6647 184.914 68.59C185.166 68.5153 185.418 68.3847 185.67 68.198C185.772 68.1233 185.87 68.0907 185.964 68.1C186.057 68.1093 186.136 68.1467 186.202 68.212C186.267 68.268 186.309 68.3427 186.328 68.436C186.356 68.5293 186.356 68.6227 186.328 68.716C186.3 68.8 186.239 68.8747 186.146 68.94C185.847 69.1827 185.52 69.36 185.166 69.472C184.811 69.5747 184.466 69.626 184.13 69.626ZM189.798 69.626C189.126 69.626 188.613 69.4207 188.258 69.01C187.903 68.5993 187.726 68.0113 187.726 67.246V60.106C187.726 59.9193 187.773 59.7793 187.866 59.686C187.959 59.5833 188.099 59.532 188.286 59.532C188.463 59.532 188.603 59.5833 188.706 59.686C188.809 59.7793 188.86 59.9193 188.86 60.106V67.162C188.86 67.666 188.958 68.044 189.154 68.296C189.359 68.5387 189.658 68.66 190.05 68.66C190.134 68.66 190.209 68.6553 190.274 68.646C190.339 68.6367 190.405 68.632 190.47 68.632C190.573 68.6227 190.643 68.646 190.68 68.702C190.727 68.758 190.75 68.87 190.75 69.038C190.75 69.206 190.713 69.332 190.638 69.416C190.563 69.5 190.442 69.556 190.274 69.584C190.199 69.5933 190.12 69.6027 190.036 69.612C189.952 69.6213 189.873 69.626 189.798 69.626ZM194.277 69.626C193.726 69.626 193.269 69.528 192.905 69.332C192.55 69.1267 192.279 68.8233 192.093 68.422C191.915 68.0207 191.827 67.5213 191.827 66.924V63.172C191.827 62.976 191.873 62.8313 191.967 62.738C192.069 62.6447 192.209 62.598 192.387 62.598C192.573 62.598 192.713 62.6447 192.807 62.738C192.909 62.8313 192.961 62.976 192.961 63.172V66.91C192.961 67.5073 193.082 67.9553 193.325 68.254C193.577 68.5433 193.969 68.688 194.501 68.688C195.079 68.688 195.551 68.492 195.915 68.1C196.279 67.708 196.461 67.1947 196.461 66.56V63.172C196.461 62.976 196.507 62.8313 196.601 62.738C196.703 62.6447 196.848 62.598 197.035 62.598C197.212 62.598 197.347 62.6447 197.441 62.738C197.543 62.8313 197.595 62.976 197.595 63.172V69.01C197.595 69.402 197.413 69.598 197.049 69.598C196.871 69.598 196.731 69.5467 196.629 69.444C196.535 69.3413 196.489 69.1967 196.489 69.01V67.736L196.671 67.932C196.484 68.4827 196.176 68.9027 195.747 69.192C195.327 69.4813 194.837 69.626 194.277 69.626ZM200.276 69.57C200.09 69.57 199.95 69.5187 199.856 69.416C199.763 69.304 199.716 69.15 199.716 68.954V63.228C199.716 63.032 199.763 62.8827 199.856 62.78C199.95 62.6773 200.09 62.626 200.276 62.626C200.454 62.626 200.594 62.6773 200.696 62.78C200.799 62.8827 200.85 63.032 200.85 63.228V68.954C200.85 69.15 200.799 69.304 200.696 69.416C200.603 69.5187 200.463 69.57 200.276 69.57ZM200.738 61.716C200.673 61.8093 200.594 61.8653 200.5 61.884C200.407 61.8933 200.318 61.8793 200.234 61.842C200.15 61.7953 200.09 61.73 200.052 61.646C200.015 61.562 200.024 61.464 200.08 61.352L201.256 59.07C201.322 58.9393 201.406 58.8553 201.508 58.818C201.611 58.7807 201.714 58.776 201.816 58.804C201.928 58.8227 202.022 58.8693 202.096 58.944C202.171 59.0187 202.213 59.1073 202.222 59.21C202.241 59.3127 202.213 59.42 202.138 59.532L200.738 61.716ZM205.56 69.626C204.954 69.626 204.422 69.4813 203.964 69.192C203.516 68.9027 203.166 68.4967 202.914 67.974C202.672 67.442 202.55 66.8167 202.55 66.098C202.55 65.37 202.672 64.7447 202.914 64.222C203.166 63.69 203.516 63.284 203.964 63.004C204.422 62.7147 204.954 62.57 205.56 62.57C206.176 62.57 206.704 62.724 207.142 63.032C207.581 63.34 207.875 63.7553 208.024 64.278H207.87V60.106C207.87 59.9193 207.917 59.7793 208.01 59.686C208.113 59.5833 208.258 59.532 208.444 59.532C208.622 59.532 208.757 59.5833 208.85 59.686C208.953 59.7793 209.004 59.9193 209.004 60.106V69.01C209.004 69.1967 208.958 69.3413 208.864 69.444C208.771 69.5467 208.631 69.598 208.444 69.598C208.267 69.598 208.127 69.5467 208.024 69.444C207.931 69.3413 207.884 69.1967 207.884 69.01V67.68L208.038 67.876C207.889 68.408 207.59 68.8327 207.142 69.15C206.704 69.4673 206.176 69.626 205.56 69.626ZM205.798 68.716C206.218 68.716 206.587 68.6133 206.904 68.408C207.222 68.2027 207.464 67.904 207.632 67.512C207.81 67.12 207.898 66.6487 207.898 66.098C207.898 65.2487 207.707 64.6 207.324 64.152C206.951 63.704 206.442 63.48 205.798 63.48C205.369 63.48 204.996 63.5827 204.678 63.788C204.37 63.984 204.128 64.278 203.95 64.67C203.782 65.0527 203.698 65.5287 203.698 66.098C203.698 66.938 203.89 67.5867 204.272 68.044C204.655 68.492 205.164 68.716 205.798 68.716ZM213.96 69.626C213.298 69.626 212.724 69.4813 212.238 69.192C211.753 68.9027 211.375 68.4967 211.104 67.974C210.843 67.442 210.712 66.8167 210.712 66.098C210.712 65.5567 210.787 65.0713 210.936 64.642C211.086 64.2033 211.305 63.83 211.594 63.522C211.884 63.214 212.224 62.9807 212.616 62.822C213.018 62.654 213.466 62.57 213.96 62.57C214.623 62.57 215.197 62.7147 215.682 63.004C216.168 63.2933 216.541 63.704 216.802 64.236C217.073 64.7587 217.208 65.3793 217.208 66.098C217.208 66.6393 217.134 67.1247 216.984 67.554C216.835 67.9833 216.616 68.3567 216.326 68.674C216.037 68.982 215.692 69.22 215.29 69.388C214.898 69.5467 214.455 69.626 213.96 69.626ZM213.96 68.716C214.38 68.716 214.749 68.6133 215.066 68.408C215.384 68.2027 215.626 67.904 215.794 67.512C215.972 67.12 216.06 66.6487 216.06 66.098C216.06 65.2487 215.869 64.6 215.486 64.152C215.113 63.704 214.604 63.48 213.96 63.48C213.531 63.48 213.158 63.5827 212.84 63.788C212.532 63.984 212.29 64.278 212.112 64.67C211.944 65.0527 211.86 65.5287 211.86 66.098C211.86 66.938 212.052 67.5867 212.434 68.044C212.817 68.492 213.326 68.716 213.96 68.716ZM225.405 69.626C224.724 69.626 224.136 69.4767 223.641 69.178C223.146 68.8793 222.764 68.464 222.493 67.932C222.232 67.3907 222.101 66.7653 222.101 66.056C222.101 65.5147 222.176 65.0293 222.325 64.6C222.474 64.1707 222.694 63.8067 222.983 63.508C223.272 63.2 223.618 62.9667 224.019 62.808C224.43 62.6493 224.892 62.57 225.405 62.57C225.741 62.57 226.091 62.6213 226.455 62.724C226.819 62.8267 227.15 63.004 227.449 63.256C227.542 63.3213 227.603 63.4007 227.631 63.494C227.659 63.5873 227.659 63.6807 227.631 63.774C227.603 63.858 227.556 63.9327 227.491 63.998C227.426 64.054 227.342 64.0867 227.239 64.096C227.146 64.1053 227.048 64.0727 226.945 63.998C226.702 63.8113 226.455 63.6807 226.203 63.606C225.951 63.5313 225.708 63.494 225.475 63.494C225.111 63.494 224.794 63.5547 224.523 63.676C224.252 63.788 224.024 63.9513 223.837 64.166C223.65 64.3807 223.506 64.6467 223.403 64.964C223.31 65.2813 223.263 65.65 223.263 66.07C223.263 66.882 223.454 67.526 223.837 68.002C224.22 68.4687 224.766 68.702 225.475 68.702C225.708 68.702 225.946 68.6647 226.189 68.59C226.441 68.5153 226.693 68.3847 226.945 68.198C227.048 68.1233 227.146 68.0907 227.239 68.1C227.332 68.1093 227.412 68.1467 227.477 68.212C227.542 68.268 227.584 68.3427 227.603 68.436C227.631 68.5293 227.631 68.6227 227.603 68.716C227.575 68.8 227.514 68.8747 227.421 68.94C227.122 69.1827 226.796 69.36 226.441 69.472C226.086 69.5747 225.741 69.626 225.405 69.626ZM231.693 69.626C231.03 69.626 230.456 69.4813 229.971 69.192C229.485 68.9027 229.107 68.4967 228.837 67.974C228.575 67.442 228.445 66.8167 228.445 66.098C228.445 65.5567 228.519 65.0713 228.669 64.642C228.818 64.2033 229.037 63.83 229.327 63.522C229.616 63.214 229.957 62.9807 230.349 62.822C230.75 62.654 231.198 62.57 231.693 62.57C232.355 62.57 232.929 62.7147 233.415 63.004C233.9 63.2933 234.273 63.704 234.535 64.236C234.805 64.7587 234.941 65.3793 234.941 66.098C234.941 66.6393 234.866 67.1247 234.717 67.554C234.567 67.9833 234.348 68.3567 234.059 68.674C233.769 68.982 233.424 69.22 233.023 69.388C232.631 69.5467 232.187 69.626 231.693 69.626ZM231.693 68.716C232.113 68.716 232.481 68.6133 232.799 68.408C233.116 68.2027 233.359 67.904 233.527 67.512C233.704 67.12 233.793 66.6487 233.793 66.098C233.793 65.2487 233.601 64.6 233.219 64.152C232.845 63.704 232.337 63.48 231.693 63.48C231.263 63.48 230.89 63.5827 230.573 63.788C230.265 63.984 230.022 64.278 229.845 64.67C229.677 65.0527 229.593 65.5287 229.593 66.098C229.593 66.938 229.784 67.5867 230.167 68.044C230.549 68.492 231.058 68.716 231.693 68.716ZM237.232 69.598C237.045 69.598 236.905 69.5467 236.812 69.444C236.719 69.3413 236.672 69.1967 236.672 69.01V63.172C236.672 62.9853 236.719 62.8453 236.812 62.752C236.905 62.6493 237.041 62.598 237.218 62.598C237.395 62.598 237.531 62.6493 237.624 62.752C237.727 62.8453 237.778 62.9853 237.778 63.172V64.404L237.624 64.208C237.801 63.6853 238.086 63.284 238.478 63.004C238.879 62.7147 239.355 62.57 239.906 62.57C240.485 62.57 240.951 62.71 241.306 62.99C241.67 63.2607 241.913 63.6853 242.034 64.264H241.824C241.992 63.7413 242.291 63.3307 242.72 63.032C243.159 62.724 243.667 62.57 244.246 62.57C244.759 62.57 245.179 62.668 245.506 62.864C245.842 63.06 246.094 63.3587 246.262 63.76C246.43 64.152 246.514 64.6513 246.514 65.258V69.01C246.514 69.1967 246.463 69.3413 246.36 69.444C246.267 69.5467 246.127 69.598 245.94 69.598C245.763 69.598 245.623 69.5467 245.52 69.444C245.427 69.3413 245.38 69.1967 245.38 69.01V65.314C245.38 64.6887 245.273 64.2313 245.058 63.942C244.843 63.6433 244.479 63.494 243.966 63.494C243.406 63.494 242.963 63.69 242.636 64.082C242.319 64.4647 242.16 64.9873 242.16 65.65V69.01C242.16 69.1967 242.109 69.3413 242.006 69.444C241.913 69.5467 241.773 69.598 241.586 69.598C241.409 69.598 241.269 69.5467 241.166 69.444C241.073 69.3413 241.026 69.1967 241.026 69.01V65.314C241.026 64.6887 240.914 64.2313 240.69 63.942C240.475 63.6433 240.116 63.494 239.612 63.494C239.052 63.494 238.609 63.69 238.282 64.082C237.965 64.4647 237.806 64.9873 237.806 65.65V69.01C237.806 69.402 237.615 69.598 237.232 69.598ZM254.54 69.626C254.12 69.626 253.695 69.5747 253.266 69.472C252.846 69.3693 252.454 69.192 252.09 68.94C251.996 68.8747 251.931 68.8 251.894 68.716C251.856 68.6227 251.842 68.534 251.852 68.45C251.87 68.3567 251.908 68.2773 251.964 68.212C252.029 68.1467 252.104 68.1093 252.188 68.1C252.281 68.0813 252.384 68.1 252.496 68.156C252.86 68.38 253.21 68.5387 253.546 68.632C253.891 68.716 254.232 68.758 254.568 68.758C255.1 68.758 255.501 68.66 255.772 68.464C256.042 68.268 256.178 68.002 256.178 67.666C256.178 67.4047 256.089 67.1993 255.912 67.05C255.734 66.8913 255.454 66.77 255.072 66.686L253.798 66.406C253.21 66.2847 252.771 66.0747 252.482 65.776C252.202 65.4773 252.062 65.09 252.062 64.614C252.062 64.194 252.169 63.8347 252.384 63.536C252.608 63.228 252.92 62.99 253.322 62.822C253.723 62.654 254.19 62.57 254.722 62.57C255.132 62.57 255.52 62.626 255.884 62.738C256.257 62.8407 256.593 63.0087 256.892 63.242C256.985 63.3073 257.046 63.3867 257.074 63.48C257.111 63.564 257.116 63.6527 257.088 63.746C257.069 63.83 257.027 63.9047 256.962 63.97C256.896 64.026 256.817 64.0587 256.724 64.068C256.63 64.0773 256.532 64.0493 256.43 63.984C256.15 63.7973 255.865 63.662 255.576 63.578C255.286 63.4847 255.002 63.438 254.722 63.438C254.199 63.438 253.802 63.5407 253.532 63.746C253.261 63.9513 253.126 64.222 253.126 64.558C253.126 64.8193 253.21 65.034 253.378 65.202C253.546 65.37 253.807 65.4913 254.162 65.566L255.436 65.832C256.042 65.9627 256.495 66.1727 256.794 66.462C257.102 66.742 257.256 67.1247 257.256 67.61C257.256 68.226 257.008 68.716 256.514 69.08C256.019 69.444 255.361 69.626 254.54 69.626ZM261.392 69.626C260.841 69.626 260.384 69.528 260.02 69.332C259.665 69.1267 259.395 68.8233 259.208 68.422C259.031 68.0207 258.942 67.5213 258.942 66.924V63.172C258.942 62.976 258.989 62.8313 259.082 62.738C259.185 62.6447 259.325 62.598 259.502 62.598C259.689 62.598 259.829 62.6447 259.922 62.738C260.025 62.8313 260.076 62.976 260.076 63.172V66.91C260.076 67.5073 260.197 67.9553 260.44 68.254C260.692 68.5433 261.084 68.688 261.616 68.688C262.195 68.688 262.666 68.492 263.03 68.1C263.394 67.708 263.576 67.1947 263.576 66.56V63.172C263.576 62.976 263.623 62.8313 263.716 62.738C263.819 62.6447 263.963 62.598 264.15 62.598C264.327 62.598 264.463 62.6447 264.556 62.738C264.659 62.8313 264.71 62.976 264.71 63.172V69.01C264.71 69.402 264.528 69.598 264.164 69.598C263.987 69.598 263.847 69.5467 263.744 69.444C263.651 69.3413 263.604 69.1967 263.604 69.01V67.736L263.786 67.932C263.599 68.4827 263.291 68.9027 262.862 69.192C262.442 69.4813 261.952 69.626 261.392 69.626ZM269.716 69.626C269.034 69.626 268.446 69.4767 267.952 69.178C267.457 68.8793 267.074 68.464 266.804 67.932C266.542 67.3907 266.412 66.7653 266.412 66.056C266.412 65.5147 266.486 65.0293 266.636 64.6C266.785 64.1707 267.004 63.8067 267.294 63.508C267.583 63.2 267.928 62.9667 268.33 62.808C268.74 62.6493 269.202 62.57 269.716 62.57C270.052 62.57 270.402 62.6213 270.766 62.724C271.13 62.8267 271.461 63.004 271.76 63.256C271.853 63.3213 271.914 63.4007 271.942 63.494C271.97 63.5873 271.97 63.6807 271.942 63.774C271.914 63.858 271.867 63.9327 271.802 63.998C271.736 64.054 271.652 64.0867 271.55 64.096C271.456 64.1053 271.358 64.0727 271.256 63.998C271.013 63.8113 270.766 63.6807 270.514 63.606C270.262 63.5313 270.019 63.494 269.786 63.494C269.422 63.494 269.104 63.5547 268.834 63.676C268.563 63.788 268.334 63.9513 268.148 64.166C267.961 64.3807 267.816 64.6467 267.714 64.964C267.62 65.2813 267.574 65.65 267.574 66.07C267.574 66.882 267.765 67.526 268.148 68.002C268.53 68.4687 269.076 68.702 269.786 68.702C270.019 68.702 270.257 68.6647 270.5 68.59C270.752 68.5153 271.004 68.3847 271.256 68.198C271.358 68.1233 271.456 68.0907 271.55 68.1C271.643 68.1093 271.722 68.1467 271.788 68.212C271.853 68.268 271.895 68.3427 271.914 68.436C271.942 68.5293 271.942 68.6227 271.914 68.716C271.886 68.8 271.825 68.8747 271.732 68.94C271.433 69.1827 271.106 69.36 270.752 69.472C270.397 69.5747 270.052 69.626 269.716 69.626ZM276.241 69.626C275.523 69.626 274.902 69.486 274.379 69.206C273.866 68.9167 273.465 68.5107 273.175 67.988C272.895 67.4653 272.755 66.84 272.755 66.112C272.755 65.4027 272.895 64.7867 273.175 64.264C273.455 63.732 273.838 63.3167 274.323 63.018C274.818 62.7193 275.387 62.57 276.031 62.57C276.489 62.57 276.899 62.6493 277.263 62.808C277.627 62.9573 277.935 63.1767 278.187 63.466C278.449 63.7553 278.645 64.1053 278.775 64.516C278.915 64.9267 278.985 65.3887 278.985 65.902C278.985 66.0513 278.943 66.1633 278.859 66.238C278.775 66.3033 278.654 66.336 278.495 66.336H273.623V65.594H278.229L278.005 65.776C278.005 65.272 277.931 64.8473 277.781 64.502C277.632 64.1473 277.413 63.8767 277.123 63.69C276.843 63.5033 276.489 63.41 276.059 63.41C275.583 63.41 275.177 63.522 274.841 63.746C274.515 63.9607 274.267 64.264 274.099 64.656C273.931 65.0387 273.847 65.4867 273.847 66V66.084C273.847 66.9427 274.053 67.596 274.463 68.044C274.883 68.492 275.476 68.716 276.241 68.716C276.559 68.716 276.871 68.674 277.179 68.59C277.497 68.506 277.805 68.366 278.103 68.17C278.234 68.086 278.351 68.0487 278.453 68.058C278.565 68.058 278.654 68.0907 278.719 68.156C278.785 68.212 278.827 68.2867 278.845 68.38C278.873 68.464 278.864 68.5573 278.817 68.66C278.78 68.7627 278.701 68.8513 278.579 68.926C278.271 69.15 277.907 69.3227 277.487 69.444C277.067 69.5653 276.652 69.626 276.241 69.626ZM282.923 69.626C282.503 69.626 282.078 69.5747 281.649 69.472C281.229 69.3693 280.837 69.192 280.473 68.94C280.379 68.8747 280.314 68.8 280.277 68.716C280.239 68.6227 280.225 68.534 280.235 68.45C280.253 68.3567 280.291 68.2773 280.347 68.212C280.412 68.1467 280.487 68.1093 280.571 68.1C280.664 68.0813 280.767 68.1 280.879 68.156C281.243 68.38 281.593 68.5387 281.929 68.632C282.274 68.716 282.615 68.758 282.951 68.758C283.483 68.758 283.884 68.66 284.155 68.464C284.425 68.268 284.561 68.002 284.561 67.666C284.561 67.4047 284.472 67.1993 284.295 67.05C284.117 66.8913 283.837 66.77 283.455 66.686L282.181 66.406C281.593 66.2847 281.154 66.0747 280.865 65.776C280.585 65.4773 280.445 65.09 280.445 64.614C280.445 64.194 280.552 63.8347 280.767 63.536C280.991 63.228 281.303 62.99 281.705 62.822C282.106 62.654 282.573 62.57 283.105 62.57C283.515 62.57 283.903 62.626 284.267 62.738C284.64 62.8407 284.976 63.0087 285.275 63.242C285.368 63.3073 285.429 63.3867 285.457 63.48C285.494 63.564 285.499 63.6527 285.471 63.746C285.452 63.83 285.41 63.9047 285.345 63.97C285.279 64.026 285.2 64.0587 285.107 64.068C285.013 64.0773 284.915 64.0493 284.813 63.984C284.533 63.7973 284.248 63.662 283.959 63.578C283.669 63.4847 283.385 63.438 283.105 63.438C282.582 63.438 282.185 63.5407 281.915 63.746C281.644 63.9513 281.509 64.222 281.509 64.558C281.509 64.8193 281.593 65.034 281.761 65.202C281.929 65.37 282.19 65.4913 282.545 65.566L283.819 65.832C284.425 65.9627 284.878 66.1727 285.177 66.462C285.485 66.742 285.639 67.1247 285.639 67.61C285.639 68.226 285.391 68.716 284.897 69.08C284.402 69.444 283.744 69.626 282.923 69.626ZM289.663 69.626C289.243 69.626 288.818 69.5747 288.389 69.472C287.969 69.3693 287.577 69.192 287.213 68.94C287.119 68.8747 287.054 68.8 287.017 68.716C286.979 68.6227 286.965 68.534 286.975 68.45C286.993 68.3567 287.031 68.2773 287.087 68.212C287.152 68.1467 287.227 68.1093 287.311 68.1C287.404 68.0813 287.507 68.1 287.619 68.156C287.983 68.38 288.333 68.5387 288.669 68.632C289.014 68.716 289.355 68.758 289.691 68.758C290.223 68.758 290.624 68.66 290.895 68.464C291.165 68.268 291.301 68.002 291.301 67.666C291.301 67.4047 291.212 67.1993 291.035 67.05C290.857 66.8913 290.577 66.77 290.195 66.686L288.921 66.406C288.333 66.2847 287.894 66.0747 287.605 65.776C287.325 65.4773 287.185 65.09 287.185 64.614C287.185 64.194 287.292 63.8347 287.507 63.536C287.731 63.228 288.043 62.99 288.445 62.822C288.846 62.654 289.313 62.57 289.845 62.57C290.255 62.57 290.643 62.626 291.007 62.738C291.38 62.8407 291.716 63.0087 292.015 63.242C292.108 63.3073 292.169 63.3867 292.197 63.48C292.234 63.564 292.239 63.6527 292.211 63.746C292.192 63.83 292.15 63.9047 292.085 63.97C292.019 64.026 291.94 64.0587 291.847 64.068C291.753 64.0773 291.655 64.0493 291.553 63.984C291.273 63.7973 290.988 63.662 290.699 63.578C290.409 63.4847 290.125 63.438 289.845 63.438C289.322 63.438 288.925 63.5407 288.655 63.746C288.384 63.9513 288.249 64.222 288.249 64.558C288.249 64.8193 288.333 65.034 288.501 65.202C288.669 65.37 288.93 65.4913 289.285 65.566L290.559 65.832C291.165 65.9627 291.618 66.1727 291.917 66.462C292.225 66.742 292.379 67.1247 292.379 67.61C292.379 68.226 292.131 68.716 291.637 69.08C291.142 69.444 290.484 69.626 289.663 69.626ZM296.935 69.626C296.272 69.626 295.698 69.4813 295.213 69.192C294.728 68.9027 294.35 68.4967 294.079 67.974C293.818 67.442 293.687 66.8167 293.687 66.098C293.687 65.5567 293.762 65.0713 293.911 64.642C294.06 64.2033 294.28 63.83 294.569 63.522C294.858 63.214 295.199 62.9807 295.591 62.822C295.992 62.654 296.44 62.57 296.935 62.57C297.598 62.57 298.172 62.7147 298.657 63.004C299.142 63.2933 299.516 63.704 299.777 64.236C300.048 64.7587 300.183 65.3793 300.183 66.098C300.183 66.6393 300.108 67.1247 299.959 67.554C299.81 67.9833 299.59 68.3567 299.301 68.674C299.012 68.982 298.666 69.22 298.265 69.388C297.873 69.5467 297.43 69.626 296.935 69.626ZM296.935 68.716C297.355 68.716 297.724 68.6133 298.041 68.408C298.358 68.2027 298.601 67.904 298.769 67.512C298.946 67.12 299.035 66.6487 299.035 66.098C299.035 65.2487 298.844 64.6 298.461 64.152C298.088 63.704 297.579 63.48 296.935 63.48C296.506 63.48 296.132 63.5827 295.815 63.788C295.507 63.984 295.264 64.278 295.087 64.67C294.919 65.0527 294.835 65.5287 294.835 66.098C294.835 66.938 295.026 67.5867 295.409 68.044C295.792 68.492 296.3 68.716 296.935 68.716Z" fill="#243F80"/>
<path d="M351.5 61.5L344.5 68.5" stroke="#243F80" stroke-width="1.5" stroke-linecap="round" stroke-linejoin="round"/>
<path d="M344.5 61.5L351.5 68.5" stroke="#243F80" stroke-width="1.5" stroke-linecap="round" stroke-linejoin="round"/>
</g>
<defs>
<filter id="filter0_d_410_48368" x="0" y="0" width="414" height="138" filterUnits="userSpaceOnUse" color-interpolation-filters="sRGB">
<feFlood flood-opacity="0" result="BackgroundImageFix"/>
<feColorMatrix in="SourceAlpha" type="matrix" values="0 0 0 0 0 0 0 0 0 0 0 0 0 0 0 0 0 0 127 0" result="hardAlpha"/>
<feOffset dy="4"/>
<feGaussianBlur stdDeviation="21"/>
<feComposite in2="hardAlpha" operator="out"/>
<feColorMatrix type="matrix" values="0 0 0 0 0 0 0 0 0 0 0 0 0 0 0 0 0 0 0.2 0"/>
<feBlend mode="normal" in2="BackgroundImageFix" result="effect1_dropShadow_410_48368"/>
<feBlend mode="normal" in="SourceGraphic" in2="effect1_dropShadow_410_48368" result="shape"/>
</filter>
</defs>
</svg>
